<?xml version="1.0" encoding="UTF-8"?>
<!DOCTYPE svg  PUBLIC '-//W3C//DTD SVG 1.1//EN'  'http://www.w3.org/Graphics/SVG/1.1/DTD/svg11.dtd'>
<svg enable-background="new 0 0 841.89 595.28" version="1.1" viewBox="0 0 841.89 595.28" xml:space="preserve" xmlns="http://www.w3.org/2000/svg">
	<path d="m484.73 461.69c-0.02-0.08-0.057-0.145-0.097-0.205l0.104 0.273c-1e-3 -0.023-7e-3 -0.046-7e-3 -0.068z" fill="none"/>
	<path d="m483.52 455.65l0.023 0.486c0.028-0.161 0.018-0.324-0.023-0.486z" fill="none"/>
	<path d="m484.67 465.56c0.19-0.063 0.381-0.19 0.444-0.444 0.128-0.191 0.128-0.317 0.063-0.572 0-0.19-0.063-0.317-0.254-0.508-0.127-0.19-0.316-0.254-0.509-0.254-0.254 0-0.38 0.063-0.571 0.254-0.189 0.19-0.254 0.317-0.254 0.508 0 0.255 0 0.381 0.064 0.509 0.126 0.19 0.189 0.381 0.443 0.444 0.13 0.127 0.383 0.127 0.574 0.063z" fill="none"/>
	<path d="m483.46 456.42c0.046-0.093 0.07-0.184 0.087-0.276l-0.023-0.486c0-0.062-0.063-0.127-0.063-0.254l-0.17-0.33c-0.069-0.095-0.157-0.183-0.274-0.241-0.191-0.127-0.445-0.19-0.699-0.127-0.254 0-0.444 0.19-0.636 0.381-0.127 0.254-0.127 0.509-0.062 0.763 0 0.126 0 0.316 0.062 0.444 0.064 0.254 0.255 0.381 0.509 0.572 0.19 0.062 0.444 0.127 0.699 0 0.252-0.064 0.443-0.256 0.57-0.446z" fill="none"/>
	<path d="m484.16 463.21c0.254 0 0.382-0.128 0.572-0.318 0.063-0.19 0.127-0.381 0.063-0.572 0-0.225-0.045-0.398-0.057-0.567l-0.104-0.273c-0.085-0.126-0.198-0.215-0.285-0.302-0.19-0.127-0.381-0.127-0.571-0.127-0.254 0.063-0.444 0.19-0.571 0.382-0.064 0.189-0.128 0.38-0.064 0.57 0.064 0.191 0.064 0.381 0.128 0.572 0 0.254 0.127 0.381 0.317 0.571 0.191 0.064 0.382 0.126 0.572 0.064z" fill="none"/>
	<path d="m646.46 305.61c0.318 0 0.635-0.064 0.889-0.318 0.127-0.127 0.255-0.381 0.317-0.635v-1.334c0-0.318-0.126-0.572-0.317-0.826-0.254-0.19-0.57-0.317-0.889-0.317-0.316 0-0.571 0.127-0.762 0.317-0.19 0.254-0.318 0.508-0.318 0.826v1.334c0.063 0.254 0.128 0.508 0.318 0.635 0.191 0.254 0.445 0.318 0.762 0.318z" fill="none"/>
	<path d="m485.49 471.03c0.127-0.128 0.19-0.255 0.19-0.445v-0.254s-0.063-0.317-0.19-0.445c-0.127-0.126-0.317-0.19-0.444-0.19-0.19 0-0.317 0.064-0.443 0.19-0.129 0.128-0.192 0.318-0.192 0.445s0 0.19 0 0.254c0 0.19 0.063 0.317 0.192 0.445 0.126 0.126 0.253 0.189 0.443 0.189 0.127 1e-3 0.317-0.063 0.444-0.189z" fill="none"/>
	<path d="m645.38 322.31c0 0.317 0.128 0.572 0.318 0.763 0.19 0.254 0.445 0.317 0.762 0.317 0.318 0 0.635-0.063 0.889-0.317 0.191-0.19 0.317-0.445 0.317-0.763v-0.763c0-0.254-0.126-0.571-0.317-0.825-0.254-0.191-0.57-0.317-0.889-0.317-0.316 0-0.571 0.126-0.762 0.317-0.19 0.254-0.318 0.571-0.318 0.825v0.763z" fill="none"/>
	<path d="m485.75 474.2c-0.19-0.127-0.318-0.19-0.444-0.19-0.191 0.063-0.382 0.127-0.509 0.254-0.063 0.127-0.127 0.317-0.127 0.444 0.063 0.255 0.063 0.509 0.063 0.763 0 0.19 0.063 0.317 0.127 0.444 0.19 0.127 0.317 0.191 0.508 0.191 0.127 0 0.317-0.064 0.382-0.191 0.189-0.127 0.253-0.254 0.253-0.444 0-0.254 0-0.571-0.063-0.826 0-0.191-0.127-0.317-0.19-0.445z" fill="none"/>
	<path d="m482.25 454.57c0.237-0.119 0.416-0.295 0.542-0.475l-1.259-2.459c-0.077 0.013-0.156 0.035-0.236 0.075-0.254 0.063-0.444 0.19-0.571 0.444-0.063 0.191-0.127 0.445-0.063 0.699 0.127 0.316 0.254 0.698 0.381 1.08 0.063 0.253 0.254 0.443 0.508 0.507 0.19 0.193 0.444 0.193 0.698 0.129z" fill="none"/>
	<path d="m473.1 434.75c0-0.191-0.063-0.382-0.127-0.572-0.254-0.254-0.382-0.381-0.571-0.636-0.128-0.19-0.318-0.254-0.509-0.317s-0.445 0-0.571 0.127c-0.19 0.127-0.254 0.255-0.318 0.509-0.063 0.254 0 0.381 0.128 0.571 0.19 0.254 0.316 0.509 0.571 0.763 0.127 0.19 0.317 0.254 0.508 0.318 0.254 0 0.445-0.064 0.572-0.191 0.191-0.128 0.254-0.319 0.317-0.572z" fill="none"/>
	<path d="m469.93 430.94c-0.191-0.318-0.445-0.509-0.699-0.825-0.063-0.127-0.254-0.191-0.381-0.191h-0.063s0 0 0-0.062c0-0.19-0.128-0.318-0.191-0.445-0.127-0.063-0.254-0.254-0.317-0.317-0.127-0.127-0.317-0.19-0.508-0.19-0.127 0-0.255 0.063-0.445 0.19-0.063 0.127-0.189 0.254-0.189 0.444 0 0.128 0.126 0.318 0.189 0.445 0.128 0.127 0.254 0.189 0.318 0.317 0.127 0.126 0.317 0.19 0.508 0.19v0.063c0 0.126 0.063 0.254 0.19 0.444 0.254 0.254 0.509 0.509 0.699 0.763 0.127 0.127 0.254 0.19 0.444 0.19 0.127 0 0.317-0.063 0.445-0.127 0.127-0.127 0.19-0.317 0.19-0.445 0-0.19-0.063-0.317-0.19-0.444z" fill="none"/>
	<path d="m476.15 438.56c-0.253-0.381-0.571-0.825-0.825-1.143-0.127-0.254-0.317-0.445-0.572-0.445-0.254-0.063-0.444 0-0.698 0.128-0.19 0.189-0.381 0.317-0.381 0.635-0.063 0.19-0.063 0.508 0.062 0.698 0.255 0.381 0.572 0.763 0.826 1.144 0.128 0.254 0.317 0.382 0.571 0.382 0.255 0.063 0.51 0 0.764-0.128 0.189-0.19 0.317-0.317 0.381-0.635 0-0.19 0-0.444-0.128-0.636z" fill="none"/>
	<path d="m482.82 454.06c0.064-0.254 0.128-0.508 0.064-0.762-0.128-0.317-0.318-0.635-0.382-1.017-0.127-0.254-0.254-0.444-0.508-0.508-0.131-0.131-0.292-0.167-0.463-0.139l1.259 2.459c9e-3 -9e-3 0.022-0.02 0.03-0.033z" fill="none"/>
	<path d="m646.46 297.73c-0.316 0-0.571 0.127-0.762 0.317-0.19 0.254-0.318 0.509-0.318 0.825v0.891c0 0.316 0.128 0.57 0.318 0.762 0.19 0.254 0.445 0.317 0.762 0.317 0.318 0 0.635-0.063 0.889-0.317 0.191-0.191 0.317-0.445 0.317-0.762v-0.891c0-0.316-0.126-0.571-0.317-0.825-0.254-0.19-0.571-0.317-0.889-0.317z" fill="none"/>
	<path d="m478.82 443.9c0.064-0.254 0-0.445-0.063-0.699-0.254-0.508-0.444-0.953-0.699-1.461-0.189-0.19-0.381-0.318-0.57-0.444-0.318-0.063-0.572-0.063-0.763 0.126-0.19 0.128-0.381 0.318-0.508 0.572 0 0.19 0 0.444 0.127 0.699 0.19 0.444 0.508 0.889 0.698 1.397 0.127 0.19 0.317 0.381 0.572 0.444 0.189 0.063 0.508 0.063 0.762-0.063 0.19-0.125 0.381-0.317 0.444-0.571z" fill="none"/>
	<path d="m483.29 455.07l0.17 0.33c-0.034-0.101-0.09-0.221-0.17-0.33z" fill="none"/>
	<path d="m480.66 449.94c0.317-0.063 0.444-0.317 0.571-0.508 0.063-0.255 0.063-0.509 0-0.763-0.127-0.317-0.254-0.635-0.381-0.953-0.127-0.254-0.254-0.381-0.509-0.444-0.254-0.19-0.508-0.19-0.698-0.063-0.254 0.127-0.445 0.254-0.571 0.508-0.064 0.254-0.064 0.508 0 0.699 0.126 0.317 0.254 0.636 0.381 0.953 0.127 0.254 0.254 0.508 0.571 0.571 0.191 0.063 0.445 0.063 0.636 0z" fill="none"/>
	<path d="m646.84 224.04c0.317 0 0.571-0.127 0.763-0.381 0.19-0.126 0.381-0.381 0.381-0.698v-1.017c0-0.254-0.19-0.572-0.381-0.762-0.191-0.191-0.445-0.255-0.763-0.255s-0.571 0.063-0.763 0.255c-0.189 0.19-0.253 0.508-0.253 0.762v1.017c0 0.317 0.063 0.572 0.253 0.698 0.191 0.254 0.445 0.381 0.763 0.381z" fill="none"/>
	<path d="m646.59 339.15h-0.063c-0.317 0-0.571 0.128-0.763 0.382-0.253 0.255-0.381 0.509-0.381 0.826v2.604c0 0.318 0.128 0.636 0.381 0.826 0.191 0.254 0.445 0.381 0.763 0.381h0.063c0.318 0 0.571-0.127 0.825-0.381 0.254-0.19 0.317-0.508 0.317-0.826v-2.604c0-0.317-0.063-0.571-0.317-0.826-0.254-0.254-0.507-0.382-0.825-0.382z" fill="none"/>
	<path d="m660.31 320.41c-0.318 0-0.572 0.126-0.827 0.317-0.19 0.254-0.317 0.571-0.317 0.825v0.763c0 0.317 0.127 0.572 0.317 0.763 0.255 0.254 0.509 0.317 0.827 0.317 0.316 0 0.571-0.063 0.825-0.317 0.254-0.19 0.317-0.445 0.317-0.763v-0.763c0-0.254-0.063-0.571-0.317-0.825-0.253-0.191-0.508-0.317-0.825-0.317z" fill="none"/>
	<path d="m651.35 128.18c0.19-0.127 0.19-0.254 0.19-0.508v-1.906c0-0.127 0-0.318-0.19-0.508-0.127-0.127-0.254-0.19-0.444-0.19-0.255 0-0.382 0.063-0.572 0.19-0.063 0.19-0.127 0.381-0.127 0.508v1.906c0 0.254 0.063 0.381 0.127 0.508 0.19 0.127 0.317 0.254 0.572 0.254 0.191 0 0.318-0.127 0.444-0.254z" fill="none"/>
	<path d="m650.91 123.29c0.19 0 0.317-0.063 0.444-0.19 0.19-0.19 0.19-0.317 0.19-0.508v-1.017c0-0.19 0-0.38-0.19-0.572-0.127-0.063-0.254-0.19-0.444-0.19-0.255 0-0.382 0.127-0.572 0.19-0.063 0.191-0.127 0.382-0.127 0.572v1.017c0 0.191 0.063 0.318 0.127 0.508 0.19 0.127 0.317 0.19 0.572 0.19z" fill="none"/>
	<path d="m660.31 302.18c-0.318 0-0.572 0.127-0.827 0.317-0.19 0.254-0.317 0.508-0.317 0.826v1.334c0.063 0.254 0.191 0.508 0.317 0.635 0.255 0.254 0.509 0.318 0.827 0.318 0.316 0 0.571-0.064 0.825-0.318 0.19-0.127 0.254-0.381 0.317-0.635v-1.334c0-0.318-0.063-0.572-0.317-0.826-0.253-0.19-0.508-0.317-0.825-0.317z" fill="none"/>
	<path d="m660.31 293.28c-0.318 0-0.572 0.127-0.827 0.318-0.19 0.253-0.317 0.508-0.317 0.825v0.699c0 0.317 0.127 0.636 0.317 0.826 0.255 0.19 0.509 0.317 0.827 0.317 0.316 0 0.571-0.127 0.825-0.317s0.317-0.509 0.317-0.826v-0.699c0-0.317-0.063-0.572-0.317-0.825-0.253-0.191-0.508-0.318-0.825-0.318z" fill="none"/>
	<path d="m660.31 297.73c-0.318 0-0.572 0.127-0.827 0.317-0.19 0.254-0.317 0.509-0.317 0.825v0.891c0 0.316 0.127 0.57 0.317 0.762 0.255 0.254 0.509 0.317 0.827 0.317 0.316 0 0.571-0.063 0.825-0.317 0.254-0.191 0.317-0.445 0.317-0.762v-0.891c0-0.316-0.063-0.571-0.317-0.825-0.253-0.19-0.508-0.317-0.825-0.317z" fill="none"/>
	<path d="m646.46 296.27c0.318 0 0.635-0.127 0.889-0.317 0.191-0.19 0.317-0.509 0.317-0.826v-0.699c0-0.317-0.126-0.572-0.317-0.825-0.254-0.191-0.57-0.318-0.889-0.318-0.316 0-0.571 0.127-0.762 0.318-0.19 0.253-0.318 0.508-0.318 0.825v0.699c0 0.317 0.128 0.636 0.318 0.826s0.445 0.317 0.762 0.317z" fill="none"/>
	<path d="m659.23 205.88c0.19 0.254 0.382 0.317 0.636 0.317 0.317 0 0.572-0.063 0.762-0.317 0.127-0.127 0.255-0.381 0.255-0.699v-4.129c0-0.317-0.128-0.571-0.255-0.698-0.189-0.254-0.444-0.318-0.762-0.318-0.254 0-0.445 0.064-0.636 0.318-0.19 0.127-0.317 0.381-0.317 0.698v4.129c0 0.317 0.127 0.571 0.317 0.699z" fill="none"/>
	<path d="m650.91 119.54c0.19 0 0.317-0.127 0.444-0.254 0.19-0.127 0.19-0.254 0.19-0.445v-2.033c0-0.254 0-0.381-0.19-0.572-0.127-0.063-0.254-0.126-0.444-0.126-0.255 0-0.382 0.063-0.572 0.126-0.063 0.19-0.127 0.318-0.127 0.572v2.033c0 0.19 0.063 0.317 0.127 0.445 0.19 0.127 0.317 0.254 0.572 0.254z" fill="none"/>
	<path d="m647.54 200.35c-0.128-0.254-0.382-0.318-0.699-0.318-0.254 0-0.444 0.064-0.635 0.318-0.191 0.127-0.317 0.381-0.317 0.698v4.129c0 0.318 0.126 0.572 0.317 0.699 0.19 0.254 0.381 0.317 0.635 0.317 0.317 0 0.571-0.063 0.699-0.317 0.189-0.127 0.317-0.381 0.317-0.699v-4.129c0-0.317-0.128-0.571-0.317-0.698z" fill="none"/>
	<path d="m660.63 223.66c0.19-0.126 0.382-0.381 0.382-0.698v-1.017c0-0.254-0.191-0.572-0.382-0.762-0.189-0.191-0.444-0.255-0.762-0.255s-0.508 0.063-0.763 0.255c-0.19 0.19-0.254 0.508-0.254 0.762v1.017c0 0.317 0.063 0.572 0.254 0.698 0.255 0.254 0.444 0.381 0.763 0.381 0.318 0 0.572-0.127 0.762-0.381z" fill="none"/>
	<path d="m651.35 132.76c0.19-0.063 0.19-0.254 0.19-0.381v-2.159c0-0.127 0-0.318-0.19-0.508-0.127-0.127-0.254-0.127-0.444-0.127-0.255 0-0.382 0-0.572 0.127-0.063 0.19-0.127 0.381-0.127 0.508v2.159c0 0.127 0.063 0.317 0.127 0.381 0.19 0.191 0.317 0.254 0.572 0.254 0.191 0 0.318-0.063 0.444-0.254z" fill="none"/>
	<path d="m655.93 121.83c0.191 0 0.382-0.126 0.445-0.254 0.19-0.127 0.254-0.254 0.254-0.507v-5.972c0-0.19-0.063-0.381-0.254-0.508-0.063-0.127-0.254-0.191-0.445-0.191-0.189 0-0.317 0.063-0.508 0.191-0.127 0.127-0.191 0.318-0.191 0.508v5.972c0 0.253 0.064 0.38 0.191 0.507 0.19 0.128 0.318 0.254 0.508 0.254z" fill="none"/>
	<path d="m650.91 114.97c0.19 0 0.317-0.063 0.444-0.254 0.19-0.063 0.19-0.254 0.19-0.445v-1.906c0-0.189 0-0.317-0.19-0.508v-0.063c-0.127-0.063-0.254-0.127-0.444-0.127-0.255 0-0.382 0.063-0.572 0.127v0.063c-0.063 0.19-0.127 0.318-0.127 0.508v1.906c0 0.19 0.063 0.381 0.127 0.445 0.19 0.19 0.317 0.254 0.572 0.254z" fill="none"/>
	<path d="m655.42 126.66c0.19 0.127 0.318 0.191 0.508 0.191 0.191 0 0.382-0.063 0.445-0.191 0.19-0.127 0.254-0.254 0.254-0.444v-2.096c0-0.19-0.063-0.317-0.254-0.508-0.063-0.127-0.254-0.19-0.445-0.19-0.189 0-0.317 0.063-0.508 0.19-0.127 0.191-0.191 0.317-0.191 0.508v2.096c0.064 0.19 0.127 0.317 0.191 0.444z" fill="none"/>
		<line x1="482.79" x2="481.54" y1="454.1" y2="451.64" fill="none" stroke="#000" stroke-linecap="round" stroke-linejoin="round" stroke-width="0"/>
		<line x1="483.52" x2="483.55" y1="455.65" y2="456.14" fill="none" stroke="#000" stroke-linecap="round" stroke-linejoin="round" stroke-width="0"/>
		<line x1="484.63" x2="484.74" y1="461.48" y2="461.76" fill="none" stroke="#000" stroke-linecap="round" stroke-linejoin="round" stroke-width="0"/>
		<line x1="483.29" x2="483.46" y1="455.07" y2="455.4" fill="none" stroke="#000" stroke-linecap="round" stroke-linejoin="round" stroke-width="0"/>
	<path d="m769.13 571.97c-0.889 0-1.461 0.382-1.778 1.271l-1.462 4.065h-4.446l-2.922-8.83c-0.254-0.953-0.89-1.461-1.716-1.461h-40.465c-0.889 0-1.461 0.508-1.715 1.461l-3.239 9.783v-6.162h-7.56v1.905l-2.604-0.253v-2.669h-1.525v-16.199l-15.309-1.905v-183.14h0.062c-0.062-0.063-0.062-0.063-0.062-0.19-0.763-2.224 0-3.812 2.35-4.701-0.698-2.287 0.063-3.875 2.097-4.637v-11.626l-9.147-2.73v-78.072c-1.271-2.351-0.698-4.192 1.716-5.272-0.446-2.35 0.444-3.748 2.54-4.32v-13.022c-3.304-0.191-6.034-1.271-8.258-3.113v-67.463c-0.19-2.414 0.445-3.812 1.905-4.256-0.254-1.842 0.318-3.24 1.715-4.066v-8.449c-0.19-0.508-0.571-0.699-1.207-0.635-2.285-0.699-3.812-1.398-4.51-2.097v-7.179c-0.254-0.952-0.826-1.587-1.715-1.968-0.254-1.525-0.953-2.287-2.16-2.224 0.254-1.461-0.317-2.414-1.905-2.859v-45.102c0-4.001-1.397-7.432-4.193-10.227-1.271-1.271-2.604-2.414-4.065-3.494h0.381c0.317-0.064 0.571-0.191 0.825-0.445 0.318-0.254 0.445-0.572 0.445-1.017 0-0.381-0.127-0.699-0.445-1.016-0.254-0.254-0.508-0.318-0.825-0.381h-0.19c-0.381 0-0.763 0.127-1.017 0.381-0.255 0.317-0.444 0.635-0.444 1.016 0 0.318 0.063 0.508 0.189 0.699-0.953-0.699-1.969-1.334-3.049-1.905-0.063-1.97-0.254-3.749-0.444-5.336-0.254-2.351-0.636-3.939-1.017-4.638v-0.699c0.317-0.127 0.508-0.254 0.699-0.509 0.381-0.317 0.508-0.698 0.508-1.206 0-0.509-0.127-0.953-0.508-1.334-0.191-0.191-0.382-0.318-0.699-0.381-0.063-0.445-0.063-0.889-0.063-1.334 0.19-0.127 0.317-0.191 0.444-0.318 0.318-0.254 0.382-0.572 0.382-0.953s-0.063-0.699-0.382-1.017c-0.127-0.127-0.254-0.19-0.444-0.254 0-2.16-0.063-4.256-0.063-6.226-0.063-6.606-0.19-10.418-0.381-11.435h-0.063c-0.19 0-0.317 3.812-0.445 11.435-0.063 1.969-0.063 4.065-0.063 6.226-0.127 0.063-0.317 0.127-0.444 0.254-0.254 0.318-0.444 0.635-0.444 1.017 0 0.381 0.19 0.699 0.444 0.953 0.063 0.127 0.254 0.19 0.381 0.318v1.397c-0.254 0-0.444 0.127-0.698 0.318-0.318 0.381-0.509 0.825-0.509 1.334 0 0.508 0.19 0.889 0.509 1.206 0.254 0.254 0.444 0.382 0.698 0.509v0.826c-0.381 0.762-0.698 2.224-1.017 4.511-0.19 1.587-0.317 3.366-0.444 5.336-1.08 0.571-2.033 1.207-2.986 1.842 0.063-0.127 0.128-0.381 0.128-0.635 0-0.381-0.128-0.699-0.445-1.016-0.254-0.254-0.508-0.318-0.826-0.381h-0.19c-0.381 0-0.762 0.127-1.017 0.381-0.254 0.317-0.443 0.635-0.443 1.016 0 0.445 0.189 0.763 0.443 1.017 0.255 0.254 0.636 0.445 1.017 0.445h0.19c-1.396 1.08-2.795 2.223-4.002 3.494-2.858 2.795-4.256 6.226-4.256 10.227v45.103c-1.588 0.445-2.223 1.397-1.905 2.859-1.144-0.063-1.905 0.699-2.16 2.224-0.825 0.381-1.397 1.017-1.716 1.968v7.179c-0.698 0.698-2.223 1.397-4.51 2.097-0.636-0.064-1.016 0.127-1.207 0.635v8.449c1.461 0.826 2.033 2.224 1.779 4.066 1.397 0.444 2.033 1.842 1.842 4.256v67.463c-2.223 1.842-4.954 2.922-8.194 3.113v13.022c2.032 0.572 2.923 1.97 2.541 4.32 2.351 1.08 2.922 2.922 1.716 5.272v78.072l-9.212 2.73v11.626c2.096 0.762 2.795 2.35 2.16 4.637 2.223 0.89 3.05 2.478 2.351 4.701h-0.064v156.46l-76.991-9.974v-5.146l-9.656-1.207v-5.653l-29.221-3.748v-6.353l-14.103-1.842v-10.101c0.382 0 0.636-0.127 0.889-0.381 0.254-0.19 0.383-0.444 0.383-0.826v-0.063c0-0.317-0.129-0.635-0.383-0.825-0.253-0.255-0.507-0.318-0.824-0.318 0.824-37.542-19.439-63.651-60.794-78.263-0.572-0.254-1.143-0.443-1.715-0.635-1.716-1.778-3.939-2.858-6.479-3.049-1.461-0.127-2.541-0.571-3.24-1.397-0.127-2.224-0.254-4.319-0.381-6.225-0.127-0.764-0.19-1.398-0.254-2.034-0.255-2.351-0.636-3.875-0.953-4.638v-0.762c0.19-0.064 0.444-0.19 0.635-0.444 0.382-0.317 0.572-0.699 0.572-1.208 0-0.571-0.19-1.016-0.572-1.334-0.19-0.189-0.444-0.316-0.698-0.38v-1.398c0.127-0.063 0.254-0.19 0.381-0.317 0.254-0.191 0.381-0.508 0.381-0.825v-0.128c0-0.317-0.063-0.635-0.381-0.953-0.127-0.127-0.254-0.189-0.381-0.316-0.063-2.097-0.127-4.194-0.127-6.227-0.063-1.27-0.063-2.541-0.063-3.621 0.381-0.189 0.825-0.443 1.207-0.825 0.635-0.636 0.952-1.397 0.952-2.224 0-0.952-0.317-1.714-0.952-2.35-0.509-0.508-1.017-0.763-1.652-0.826 0.19 0.063 0.445 0.19 0.636 0.382 0.571 0.635 0.825 1.334 0.825 2.159 0 0.762-0.254 1.461-0.825 2.032-0.572 0.635-1.271 0.89-2.097 0.89s-1.525-0.255-2.097-0.89c-0.03-0.03-0.062-0.062-0.084-0.092 0.136 0.337 0.367 0.629 0.656 0.918 0.636 0.636 1.398 0.953 2.351 0.953h0.317c-0.063 1.08-0.063 2.224-0.063 3.493-0.063 1.97-0.063 4.066-0.063 6.227-0.127 0.127-0.318 0.189-0.444 0.316-0.254 0.318-0.381 0.636-0.381 0.953v0.128c0 0.317 0.127 0.634 0.381 0.825 0.063 0.127 0.254 0.254 0.381 0.317v1.398c-0.254 0.063-0.508 0.19-0.698 0.38-0.318 0.318-0.508 0.763-0.508 1.334 0 0.509 0.19 0.891 0.508 1.208 0.19 0.254 0.444 0.38 0.698 0.444v0.889c-0.381 0.699-0.698 2.224-1.016 4.511-0.127 0.636-0.19 1.271-0.254 2.034-0.127 1.842-0.254 3.938-0.318 6.225-0.699 0.826-1.842 1.271-3.24 1.397-2.667 0.19-4.764 1.271-6.542 3.049-0.699 0.191-1.398 0.444-2.033 0.763-41.164 14.674-61.301 40.719-60.539 78.135-0.318 0-0.508 0.063-0.762 0.318-0.191 0.19-0.318 0.508-0.318 0.825v0.063c0 0.382 0.127 0.636 0.318 0.826 0.254 0.254 0.508 0.381 0.889 0.381v8.449l-13.594 2.159v2.859h-17.597v-3.304c-0.127-1.271 0.19-1.97 0.953-2.224-0.127-0.952 0.126-1.651 0.889-2.096v-4.383c-0.127-0.255-0.317-0.382-0.635-0.318-1.144-0.381-1.969-0.763-2.351-1.144v-3.685c-0.127-0.509-0.445-0.826-0.826-1.08-0.127-0.762-0.508-1.143-1.143-1.143 0.127-0.763-0.191-1.207-1.017-1.462v-14.607c0-2.032-0.699-3.812-2.16-5.272-1.271-1.207-2.668-2.287-4.256-3.176 0-1.017-0.127-1.906-0.191-2.732-0.189-1.397-0.38-2.223-0.571-2.54v-0.317c0.127 0 0.253-0.063 0.318-0.256 0.253-0.125 0.317-0.38 0.317-0.634s-0.064-0.445-0.317-0.636c-0.064-0.126-0.191-0.189-0.318-0.254-0.063-0.19-0.063-0.444 0-0.699 0 0 0.127-0.063 0.19-0.127 0.127-0.189 0.191-0.317 0.191-0.508 0-0.254-0.063-0.381-0.191-0.509-0.063-0.062-0.19-0.126-0.254-0.19v-3.239c-0.127-3.367-0.127-5.399-0.254-5.908-0.127 0-0.19 1.97-0.254 5.908-0.063 1.08-0.063 2.159-0.063 3.304-0.063 0.063-0.127 0.063-0.19 0.126-0.127 0.128-0.191 0.255-0.191 0.509 0 0.19 0.063 0.318 0.191 0.508 0.063 0.063 0.127 0.063 0.19 0.127v0.764c-0.127 0.063-0.254 0.063-0.318 0.189-0.19 0.19-0.317 0.382-0.317 0.636s0.127 0.509 0.317 0.634c0.063 0.127 0.191 0.256 0.318 0.256v0.635c-0.19 0.381-0.318 1.144-0.508 2.223-0.063 0.763-0.127 1.716-0.19 2.669-1.652 0.952-3.05 2.032-4.256 3.239-1.461 1.461-2.223 3.24-2.223 5.272v14.61c-0.762 0.255-1.144 0.699-0.953 1.462-0.636 0-1.017 0.381-1.144 1.143-0.445 0.254-0.763 0.571-0.89 1.08v3.685c-0.318 0.381-1.144 0.763-2.351 1.144-0.381-0.063-0.508 0.063-0.635 0.318v4.383c0.762 0.444 1.08 1.144 0.889 2.096 0.763 0.254 1.08 0.953 0.953 2.224v14.992c-0.508 0.508-0.762 1.206-0.762 2.032v4.256h-13.213c-0.572-0.444-1.207-0.762-1.906-0.762h-5.082v-68.543c-1.588-3.112-0.827-5.4 2.287-6.925-0.508-2.985 0.572-4.827 3.303-5.526v-16.901c-4.256-0.317-7.813-1.651-10.672-4.065v-75.023c-0.318-3.112 0.508-4.954 2.414-5.525-0.317-2.415 0.445-4.13 2.223-5.273v-10.926c-0.19-0.763-0.762-1.017-1.461-0.889-3.049-0.891-5.018-1.843-5.908-2.732v-9.338c-0.381-1.206-1.08-2.032-2.224-2.604-0.318-1.97-1.27-2.986-2.858-2.859 0.381-1.906-0.445-3.112-2.414-3.684v-29.602h-0.063v-6.861c0-5.209-1.779-9.592-5.463-13.34-3.113-2.986-6.607-5.59-10.608-7.877-0.127-2.542-0.318-4.891-0.636-6.988-0.318-3.049-0.762-5.018-1.271-5.971v-0.953c0.317-0.126 0.635-0.317 0.889-0.635 0.508-0.444 0.699-0.889 0.699-1.588 0-0.635-0.191-1.207-0.699-1.715-0.254-0.254-0.572-0.444-0.889-0.508v-1.779c0.19-0.063 0.317-0.19 0.508-0.381 0.317-0.318 0.508-0.763 0.508-1.271 0-0.444-0.191-0.953-0.508-1.271-0.191-0.19-0.381-0.317-0.572-0.317-0.063-2.859-0.063-5.59-0.127-8.132-0.127-8.576-0.254-13.53-0.444-14.864h-0.127c-0.19 0-0.381 4.956-0.572 14.864-0.063 2.542-0.063 5.273-0.063 8.132-0.254 0-0.443 0.126-0.635 0.317-0.317 0.318-0.508 0.826-0.508 1.271 0 0.508 0.19 0.953 0.508 1.271 0.127 0.19 0.317 0.317 0.571 0.381-0.063 0.572-0.063 1.207-0.063 1.779-0.317 0.064-0.635 0.317-0.889 0.508-0.444 0.508-0.636 1.08-0.636 1.715 0 0.699 0.191 1.144 0.636 1.588 0.254 0.318 0.572 0.509 0.889 0.635v1.08c-0.508 1.017-0.889 2.922-1.333 5.844-0.191 2.097-0.445 4.446-0.572 6.988-4.002 2.223-7.497 4.891-10.545 7.877-3.684 3.748-5.527 8.131-5.527 13.34v36.463c-1.969 0.571-2.859 1.778-2.477 3.684-1.525-0.127-2.478 0.89-2.795 2.859-1.08 0.572-1.842 1.398-2.224 2.604v9.338c-0.889 0.89-2.858 1.842-5.844 2.732-0.826-0.128-1.334 0.126-1.588 0.889v10.926c1.842 1.144 2.604 2.858 2.223 5.273 1.905 0.571 2.732 2.413 2.477 5.525v75.023c-2.921 2.414-6.479 3.748-10.672 4.065v16.897c2.668 0.699 3.812 2.541 3.303 5.526 3.113 1.524 3.812 3.812 2.224 6.925v72.037h-10.736c0-0.063 0-0.063-0.063-0.063-0.508-0.51-1.016-0.763-1.651-0.763-0.699 0-1.271 0.253-1.779 0.763l-0.063 0.063h-0.254c0-0.063 0-0.063-0.063-0.063-0.508-0.51-1.016-0.763-1.651-0.763-0.699 0-1.271 0.253-1.779 0.763l-0.063 0.063h-0.826l-0.064-0.063c-0.444-0.51-1.017-0.763-1.651-0.763-0.699 0-1.271 0.253-1.779 0.763l-0.063 0.063h-3.812c-0.889 0-1.27 0.38-1.27 1.271v11.18c-0.254-0.062-0.508-0.062-0.763-0.062-0.699 0-1.206 0.19-1.715 0.635l-0.064 0.063h-0.317v-0.063c-0.508-0.444-1.079-0.635-1.715-0.635-0.699 0-1.207 0.19-1.715 0.635l-0.063 0.063h-4.319c-0.127-0.826-0.191-1.524-0.318-2.097 0.444-0.127 0.826-0.317 1.143-0.699 0.635-0.571 0.89-1.27 0.89-2.096s-0.254-1.525-0.89-2.097c-0.571-0.571-1.271-0.889-2.033-0.889-0.889 0-1.524 0.317-2.159 0.889-0.572 0.571-0.826 1.271-0.826 2.097s0.253 1.524 0.826 2.096c0.38 0.382 0.762 0.572 1.271 0.764-0.063 0.443-0.191 0.889-0.254 1.524-0.381-0.19-0.699-0.19-1.016-0.19-0.699 0-1.271 0.19-1.779 0.635 0 0.063 0 0.063-0.063 0.063h-0.254c-0.063 0-0.063 0-0.063-0.063-0.445-0.444-1.017-0.635-1.652-0.635-0.699 0-1.271 0.19-1.779 0.635 0 0.063 0 0.063-0.063 0.063h-0.826c-0.064 0-0.064 0-0.064-0.063-0.444-0.444-1.017-0.635-1.714-0.635-0.635 0-1.208 0.19-1.652 0.635-0.063 0.063-0.063 0.063-0.127 0.063h-3.812c-0.826 0-1.271 0.444-1.271 1.27v12.833c-0.381 0.127-0.762 0.317-1.143 0.636 0 0.063 0 0.063-0.064 0.126h-0.254c-0.064-0.062-0.064-0.062-0.127-0.126-0.444-0.445-1.017-0.636-1.652-0.636-0.698 0-1.27 0.19-1.715 0.636 0 0.063 0 0.063-0.063 0.126h-0.826c-0.063-0.062-0.063-0.062-0.063-0.126-0.508-0.445-1.08-0.636-1.715-0.636-0.699 0-1.271 0.19-1.715 0.636 0 0.063 0 0.063-0.063 0.126h-1.017c-1.969-3.558-4.828-5.781-8.64-6.67v-8.131h-8.83c-3.938-6.798-10.927-12.07-20.9-15.628-0.254-0.062-0.508-0.126-0.699-0.254-0.699-0.698-1.588-1.08-2.604-1.143-0.572-0.128-1.016-0.254-1.334-0.636v-0.508c-0.063-0.698-0.063-1.398-0.126-1.97-0.063-0.317-0.063-0.572-0.127-0.89-0.064-0.953-0.254-1.523-0.381-1.842v-0.317c0.127 0 0.19-0.063 0.254-0.127 0.19-0.19 0.19-0.318 0.19-0.572 0-0.19 0-0.381-0.19-0.508-0.064-0.063-0.127-0.127-0.254-0.127h-0.508c-0.063 0-0.19 0-0.254 0.127-0.126 0.127-0.19 0.317-0.19 0.508 0 0.254 0.064 0.382 0.19 0.572 0.064 0.063 0.191 0.127 0.254 0.127v0.317c-0.127 0.318-0.254 0.952-0.381 1.842-0.064 0.317-0.064 0.572-0.064 0.89-0.063 0.571-0.063 1.271-0.126 1.97-0.064 0.127-0.064 0.317-0.064 0.508-0.253 0.382-0.699 0.508-1.27 0.636-1.081 0.062-1.97 0.444-2.668 1.143-0.254 0.128-0.508 0.254-0.826 0.318-9.973 3.62-16.833 8.766-20.709 15.563h-10.877v6.67h-21.916v59.205h781.67v-23.314h-42.371zm-299.65-140.01c-0.19 0-0.317-0.063-0.444-0.19-0.19-0.254-0.445-0.509-0.699-0.763-0.127-0.19-0.19-0.318-0.19-0.444v-0.063c-0.19 0-0.381-0.064-0.508-0.19-0.064-0.128-0.19-0.19-0.318-0.317-0.063-0.127-0.189-0.317-0.189-0.445 0-0.19 0.126-0.317 0.189-0.444 0.19-0.127 0.318-0.19 0.445-0.19 0.19 0 0.381 0.063 0.508 0.19 0.063 0.063 0.19 0.254 0.317 0.317 0.063 0.127 0.191 0.255 0.191 0.445v0.062s0 0 0.063 0c0.127 0 0.317 0.064 0.381 0.191 0.254 0.316 0.508 0.507 0.699 0.825 0.127 0.127 0.19 0.254 0.19 0.444 0 0.128-0.063 0.318-0.19 0.445-0.127 0.064-0.318 0.127-0.445 0.127zm2.732 3.559c-0.19-0.064-0.381-0.128-0.508-0.318-0.255-0.254-0.381-0.509-0.571-0.763-0.128-0.19-0.191-0.317-0.128-0.571 0.064-0.254 0.128-0.382 0.318-0.509 0.126-0.127 0.381-0.19 0.571-0.127s0.381 0.127 0.509 0.317c0.189 0.255 0.317 0.382 0.571 0.636 0.063 0.19 0.127 0.381 0.127 0.572-0.063 0.253-0.127 0.444-0.317 0.571-0.127 0.127-0.318 0.192-0.572 0.192zm2.922 4.446c-0.254 0-0.443-0.128-0.571-0.382-0.254-0.381-0.571-0.763-0.826-1.144-0.126-0.19-0.126-0.508-0.062-0.698 0-0.317 0.19-0.445 0.381-0.635 0.254-0.128 0.444-0.191 0.698-0.128 0.255 0 0.445 0.191 0.572 0.445 0.254 0.317 0.572 0.762 0.825 1.143 0.128 0.191 0.128 0.445 0.128 0.636-0.063 0.317-0.191 0.444-0.381 0.635-0.255 0.128-0.509 0.191-0.764 0.128zm2.478 4.573c-0.255-0.063-0.445-0.254-0.572-0.444-0.19-0.509-0.508-0.953-0.698-1.397-0.127-0.255-0.127-0.509-0.127-0.699 0.127-0.254 0.317-0.444 0.508-0.572 0.19-0.189 0.444-0.189 0.763-0.126 0.189 0.126 0.381 0.254 0.57 0.444 0.255 0.508 0.445 0.953 0.699 1.461 0.063 0.254 0.128 0.445 0.063 0.699-0.063 0.254-0.254 0.445-0.444 0.571-0.254 0.127-0.572 0.127-0.762 0.063zm1.842 4.828c-0.127-0.317-0.255-0.636-0.381-0.953-0.064-0.191-0.064-0.445 0-0.699 0.126-0.254 0.317-0.381 0.571-0.508 0.19-0.127 0.444-0.127 0.698 0.063 0.255 0.063 0.382 0.19 0.509 0.444 0.127 0.318 0.254 0.636 0.381 0.953 0.063 0.254 0.063 0.508 0 0.763-0.127 0.19-0.254 0.444-0.571 0.508-0.191 0.063-0.445 0.063-0.636 0-0.317-0.063-0.444-0.317-0.571-0.571zm1.588 4.574c-0.127-0.382-0.254-0.764-0.381-1.08-0.063-0.254 0-0.508 0.063-0.699 0.127-0.254 0.317-0.381 0.571-0.444 0.08-0.04 0.159-0.062 0.236-0.075 0.171-0.028 0.332 8e-3 0.463 0.139 0.254 0.063 0.381 0.254 0.508 0.508 0.063 0.382 0.254 0.699 0.382 1.017 0.063 0.254 0 0.508-0.064 0.762-8e-3 0.013-0.021 0.023-0.029 0.034-0.126 0.18-0.305 0.355-0.542 0.475-0.254 0.063-0.508 0.063-0.699-0.128-0.254-0.065-0.445-0.256-0.508-0.509zm1.143 2.922c-0.254-0.191-0.444-0.318-0.509-0.572-0.062-0.128-0.062-0.318-0.062-0.444-0.064-0.254-0.064-0.509 0.062-0.763 0.191-0.19 0.382-0.381 0.636-0.381 0.254-0.063 0.508 0 0.699 0.127 0.117 0.059 0.205 0.146 0.274 0.241 0.08 0.108 0.136 0.229 0.17 0.33 0 0.127 0.063 0.191 0.063 0.254 0.041 0.162 0.051 0.324 0.023 0.486-0.017 0.093-0.041 0.184-0.087 0.276-0.127 0.19-0.318 0.382-0.571 0.445-0.253 0.128-0.507 0.064-0.698 1e-3zm0.953 5.145c-0.063-0.19 0-0.381 0.064-0.57 0.127-0.191 0.317-0.318 0.571-0.382 0.19 0 0.381 0 0.571 0.127 0.087 0.087 0.2 0.176 0.285 0.302 0.04 0.061 0.077 0.125 0.097 0.205 0 0.022 6e-3 0.046 7e-3 0.068 0.012 0.169 0.057 0.343 0.057 0.567 0.063 0.191 0 0.382-0.063 0.572-0.19 0.19-0.318 0.318-0.572 0.318-0.19 0.062-0.381 0-0.571-0.064-0.19-0.19-0.317-0.317-0.317-0.571-0.065-0.191-0.065-0.381-0.129-0.572zm0.509 3.05c-0.064-0.128-0.064-0.254-0.064-0.509 0-0.19 0.064-0.317 0.254-0.508 0.191-0.19 0.317-0.254 0.571-0.254 0.192 0 0.382 0.063 0.509 0.254 0.19 0.19 0.254 0.317 0.254 0.508 0.064 0.255 0.064 0.381-0.063 0.572-0.063 0.254-0.254 0.381-0.444 0.444-0.191 0.063-0.444 0.063-0.572-0.063-0.255-0.063-0.319-0.254-0.445-0.444zm0.761 5.526v-0.254s0.063-0.317 0.192-0.445c0.126-0.126 0.253-0.19 0.443-0.19 0.127 0 0.317 0.064 0.444 0.19 0.127 0.128 0.19 0.318 0.19 0.445s0 0.19 0 0.254c0 0.19-0.063 0.317-0.19 0.445-0.127 0.126-0.317 0.189-0.444 0.189-0.19 0-0.317-0.063-0.443-0.189-0.128-0.128-0.192-0.255-0.192-0.445zm1.335 5.336c-0.064 0.127-0.255 0.191-0.382 0.191-0.19 0-0.317-0.064-0.508-0.191-0.063-0.127-0.127-0.254-0.127-0.444 0-0.254 0-0.508-0.063-0.763 0-0.127 0.063-0.317 0.127-0.444 0.127-0.127 0.317-0.19 0.509-0.254 0.126 0 0.254 0.063 0.444 0.19 0.062 0.128 0.189 0.254 0.189 0.444 0.063 0.255 0.063 0.572 0.063 0.826 1e-3 0.191-0.062 0.318-0.252 0.445zm159.96-155.19c0.19-0.191 0.445-0.317 0.762-0.317 0.318 0 0.635 0.126 0.889 0.317 0.191 0.254 0.317 0.571 0.317 0.825v0.763c0 0.317-0.126 0.572-0.317 0.763-0.254 0.254-0.57 0.317-0.889 0.317-0.316 0-0.571-0.063-0.762-0.317-0.19-0.19-0.318-0.445-0.318-0.763v-0.763c0-0.254 0.128-0.572 0.318-0.825zm-0.318-16.072v-1.334c0-0.318 0.128-0.572 0.318-0.826 0.19-0.19 0.445-0.317 0.762-0.317 0.318 0 0.635 0.127 0.889 0.317 0.191 0.254 0.317 0.508 0.317 0.826v1.334c-0.062 0.254-0.19 0.508-0.317 0.635-0.254 0.254-0.57 0.318-0.889 0.318-0.316 0-0.571-0.064-0.762-0.318-0.19-0.127-0.255-0.381-0.318-0.635zm2.286-4.89c0 0.316-0.126 0.57-0.317 0.762-0.254 0.254-0.57 0.317-0.889 0.317-0.316 0-0.571-0.063-0.762-0.317-0.19-0.191-0.318-0.445-0.318-0.762v-0.891c0-0.316 0.128-0.571 0.318-0.825 0.19-0.19 0.445-0.317 0.762-0.317 0.318 0 0.635 0.127 0.889 0.317 0.191 0.254 0.317 0.509 0.317 0.825v0.891zm-2.286-4.639v-0.699c0-0.317 0.128-0.572 0.318-0.825 0.19-0.191 0.445-0.318 0.762-0.318 0.318 0 0.635 0.127 0.889 0.318 0.191 0.253 0.317 0.508 0.317 0.825v0.699c0 0.317-0.126 0.636-0.317 0.826-0.254 0.19-0.57 0.317-0.889 0.317-0.316 0-0.571-0.127-0.762-0.317s-0.318-0.509-0.318-0.826zm13.468-72.164v-1.017c0-0.254 0.063-0.572 0.254-0.762 0.255-0.191 0.444-0.255 0.763-0.255 0.317 0 0.572 0.063 0.762 0.255 0.19 0.19 0.382 0.508 0.382 0.762v1.017c0 0.317-0.191 0.572-0.382 0.698-0.189 0.254-0.444 0.381-0.762 0.381s-0.508-0.127-0.763-0.381c-0.191-0.126-0.254-0.38-0.254-0.698zm-10.991-17.787c0 0.318-0.128 0.572-0.317 0.699-0.128 0.254-0.382 0.317-0.699 0.317-0.254 0-0.444-0.063-0.635-0.317-0.191-0.127-0.317-0.381-0.317-0.699v-4.129c0-0.317 0.126-0.571 0.317-0.698 0.19-0.254 0.381-0.318 0.635-0.318 0.317 0 0.571 0.064 0.699 0.318 0.189 0.127 0.317 0.381 0.317 0.698v4.129zm2.351-72.799v-2.159c0-0.127 0.063-0.318 0.127-0.508 0.19-0.127 0.317-0.127 0.572-0.127 0.19 0 0.317 0 0.444 0.127 0.19 0.19 0.19 0.381 0.19 0.508v2.159c0 0.127 0 0.317-0.19 0.381-0.127 0.191-0.254 0.254-0.444 0.254-0.255 0-0.382-0.063-0.572-0.254-0.064-0.064-0.127-0.254-0.127-0.381zm8.703 68.67c0-0.317 0.127-0.571 0.317-0.698 0.19-0.254 0.382-0.318 0.636-0.318 0.317 0 0.572 0.064 0.762 0.318 0.127 0.127 0.255 0.381 0.255 0.698v4.129c0 0.318-0.128 0.572-0.255 0.699-0.189 0.254-0.444 0.317-0.762 0.317-0.254 0-0.445-0.063-0.636-0.317-0.19-0.127-0.317-0.381-0.317-0.699v-4.129zm-3.685-85.948c0-0.19 0.064-0.381 0.191-0.508 0.19-0.127 0.318-0.191 0.508-0.191 0.191 0 0.382 0.063 0.445 0.191 0.19 0.127 0.254 0.318 0.254 0.508v5.972c0 0.253-0.063 0.38-0.254 0.507-0.063 0.128-0.254 0.254-0.445 0.254-0.189 0-0.317-0.126-0.508-0.254-0.127-0.127-0.191-0.254-0.191-0.507v-5.972zm0 9.02c0-0.19 0.064-0.317 0.191-0.508 0.19-0.127 0.318-0.19 0.508-0.19 0.191 0 0.382 0.063 0.445 0.19 0.19 0.191 0.254 0.317 0.254 0.508v2.096c0 0.19-0.063 0.317-0.254 0.444-0.063 0.127-0.254 0.191-0.445 0.191-0.189 0-0.317-0.063-0.508-0.191-0.063-0.127-0.127-0.254-0.191-0.444v-2.096zm-5.018-11.753c0-0.189 0.063-0.317 0.127-0.508v-0.063c0.19-0.063 0.317-0.127 0.572-0.127 0.19 0 0.317 0.063 0.444 0.127v0.063c0.19 0.19 0.19 0.318 0.19 0.508v1.906c0 0.19 0 0.381-0.19 0.445-0.127 0.191-0.254 0.254-0.444 0.254-0.255 0-0.382-0.063-0.572-0.254-0.063-0.063-0.127-0.254-0.127-0.445v-1.906zm0 6.417v-1.97c0-0.254 0.063-0.381 0.127-0.572 0.19-0.063 0.317-0.126 0.572-0.126 0.19 0 0.317 0.063 0.444 0.126 0.19 0.19 0.19 0.318 0.19 0.572v2.033c0 0.19 0 0.317-0.19 0.445-0.127 0.127-0.254 0.254-0.444 0.254-0.255 0-0.382-0.127-0.572-0.254-0.063-0.127-0.127-0.254-0.127-0.445v-0.063zm0 2.795c0-0.19 0.063-0.38 0.127-0.572 0.19-0.063 0.317-0.19 0.572-0.19 0.19 0 0.317 0.127 0.444 0.19 0.19 0.191 0.19 0.382 0.19 0.572v1.017c0 0.191 0 0.318-0.19 0.508-0.127 0.127-0.254 0.19-0.444 0.19-0.255 0-0.382-0.063-0.572-0.19-0.063-0.19-0.127-0.317-0.127-0.508v-1.017zm0 6.098v-1.906c0-0.127 0.063-0.318 0.127-0.508 0.19-0.127 0.317-0.19 0.572-0.19 0.19 0 0.317 0.063 0.444 0.19 0.19 0.19 0.19 0.381 0.19 0.508v1.906c0 0.254 0 0.381-0.19 0.508-0.127 0.127-0.254 0.254-0.444 0.254-0.255 0-0.382-0.127-0.572-0.254-0.064-0.126-0.127-0.253-0.127-0.508zm-4.383 95.287v-1.017c0-0.254 0.063-0.572 0.253-0.762 0.191-0.191 0.445-0.255 0.763-0.255s0.571 0.063 0.763 0.255c0.19 0.19 0.381 0.508 0.381 0.762v1.017c0 0.317-0.19 0.572-0.381 0.698-0.191 0.254-0.445 0.381-0.763 0.381s-0.571-0.127-0.763-0.381c-0.189-0.126-0.253-0.38-0.253-0.698zm1.904 120c0 0.318-0.063 0.636-0.317 0.826-0.254 0.254-0.507 0.381-0.825 0.381h-0.063c-0.317 0-0.571-0.127-0.763-0.381-0.253-0.19-0.381-0.508-0.381-0.826v-2.604c0-0.317 0.128-0.571 0.381-0.826 0.191-0.254 0.445-0.382 0.763-0.382h0.063c0.318 0 0.571 0.128 0.825 0.382 0.254 0.255 0.317 0.509 0.317 0.826v2.604zm13.723-20.646c0 0.317-0.063 0.572-0.317 0.763-0.254 0.254-0.509 0.317-0.825 0.317-0.318 0-0.572-0.063-0.827-0.317-0.19-0.19-0.317-0.445-0.317-0.763v-0.763c0-0.254 0.127-0.571 0.317-0.825 0.255-0.191 0.509-0.317 0.827-0.317 0.316 0 0.571 0.126 0.825 0.317 0.254 0.254 0.317 0.571 0.317 0.825v0.763zm0-17.787v0.128c-0.063 0.254-0.127 0.508-0.317 0.635-0.254 0.254-0.509 0.318-0.825 0.318-0.318 0-0.572-0.064-0.827-0.318-0.126-0.127-0.254-0.381-0.317-0.635v-1.334c0-0.318 0.127-0.572 0.317-0.826 0.255-0.19 0.509-0.317 0.827-0.317 0.316 0 0.571 0.127 0.825 0.317 0.254 0.254 0.317 0.508 0.317 0.826v1.206zm0-4.762c0 0.316-0.063 0.57-0.317 0.762-0.254 0.254-0.509 0.317-0.825 0.317-0.318 0-0.572-0.063-0.827-0.317-0.19-0.191-0.317-0.445-0.317-0.762v-0.891c0-0.316 0.127-0.571 0.317-0.825 0.255-0.19 0.509-0.317 0.827-0.317 0.316 0 0.571 0.127 0.825 0.317 0.254 0.254 0.317 0.509 0.317 0.825v0.891zm0-4.639c0 0.317-0.063 0.636-0.317 0.826s-0.509 0.317-0.825 0.317c-0.318 0-0.572-0.127-0.827-0.317-0.19-0.19-0.317-0.509-0.317-0.826v-0.699c0-0.317 0.127-0.572 0.317-0.825 0.255-0.191 0.509-0.318 0.827-0.318 0.316 0 0.571 0.127 0.825 0.318 0.254 0.253 0.317 0.508 0.317 0.825v0.699z"/>
	<path d="m414.32 363.77c-0.013-0.033-0.031-0.065-0.042-0.099-1e-3 0.032 0.016 0.065 0.042 0.099z"/>
</svg>
