<svg width="33" height="33" viewBox="0 0 33 33" fill="none" xmlns="http://www.w3.org/2000/svg">
    <path
        d="M33 16.5C33 7.38633 25.6137 0 16.5 0C7.38633 0 0 7.38633 0 16.5C0 25.6137 7.38633 33 16.5 33C16.5967 33 16.6934 33 16.79 32.9936V20.1545H13.2451V16.023H16.79V12.9809C16.79 9.45527 18.9428 7.53457 22.0881 7.53457C23.5963 7.53457 24.8918 7.64414 25.2656 7.6957V11.3824H23.1C21.392 11.3824 21.0568 12.1945 21.0568 13.3869V16.0166H25.1496L24.6146 20.148H21.0568V32.3619C27.9533 30.3832 33 24.0346 33 16.5Z"
        fill="#838D95" />
</svg>
