<svg width="32" height="33" viewBox="0 0 32 33" fill="none" xmlns="http://www.w3.org/2000/svg">
    <path
        d="M19.0625 16.5C19.0625 18.2443 17.6914 19.6582 16 19.6582C14.3086 19.6582 12.9375 18.2443 12.9375 16.5C12.9375 14.7557 14.3086 13.3418 16 13.3418C17.6914 13.3418 19.0625 14.7557 19.0625 16.5Z"
        fill="#838D95" />
    <path
        d="M23.1621 10.9122C23.0149 10.5008 22.78 10.1284 22.4749 9.8228C22.1785 9.50809 21.8176 9.26588 21.4185 9.11407C21.0947 8.98441 20.6084 8.83007 19.7126 8.78802C18.7437 8.74245 18.4531 8.73264 16 8.73264C13.5466 8.73264 13.2561 8.7422 12.2874 8.78777C11.3916 8.83007 10.905 8.98441 10.5815 9.11407C10.1824 9.26588 9.82129 9.50809 9.52515 9.8228C9.21997 10.1284 8.98511 10.5006 8.83765 10.9122C8.71191 11.2461 8.56226 11.7478 8.52148 12.6716C8.47729 13.6706 8.46777 13.9702 8.46777 16.5002C8.46777 19.03 8.47729 19.3296 8.52148 20.3289C8.56226 21.2527 8.71191 21.7542 8.83765 22.088C8.98511 22.4997 9.21973 22.8718 9.5249 23.1774C9.82129 23.4921 10.1821 23.7344 10.5813 23.8862C10.905 24.0161 11.3916 24.1704 12.2874 24.2125C13.2561 24.258 13.5464 24.2676 15.9998 24.2676C18.4534 24.2676 18.7439 24.258 19.7124 24.2125C20.6082 24.1704 21.0947 24.0161 21.4185 23.8862C22.2197 23.5674 22.853 22.9143 23.1621 22.088C23.2878 21.7542 23.4375 21.2527 23.4785 20.3289C23.5227 19.3296 23.532 19.03 23.532 16.5002C23.532 13.9702 23.5227 13.6706 23.4785 12.6716C23.4377 11.7478 23.2881 11.2461 23.1621 10.9122V10.9122ZM16 21.3652C13.3943 21.3652 11.282 19.1871 11.282 16.5C11.282 13.8129 13.3943 11.6348 16 11.6348C18.6055 11.6348 20.7178 13.8129 20.7178 16.5C20.7178 19.1871 18.6055 21.3652 16 21.3652ZM20.9043 12.5794C20.2954 12.5794 19.8018 12.0704 19.8018 11.4424C19.8018 10.8145 20.2954 10.3054 20.9043 10.3054C21.5132 10.3054 22.0068 10.8145 22.0068 11.4424C22.0066 12.0704 21.5132 12.5794 20.9043 12.5794Z"
        fill="#838D95" />
    <path
        d="M16 0C7.16479 0 0 7.38869 0 16.5C0 25.6113 7.16479 33 16 33C24.8352 33 32 25.6113 32 16.5C32 7.38869 24.8352 0 16 0ZM25.1321 20.4062C25.0876 21.4148 24.9321 22.1034 24.7051 22.7061C24.2278 23.9788 23.2522 24.9849 22.0181 25.4771C21.4338 25.7113 20.7659 25.8714 19.7881 25.9175C18.8083 25.9635 18.4954 25.9746 16.0002 25.9746C13.5049 25.9746 13.1921 25.9635 12.2122 25.9175C11.2344 25.8714 10.5664 25.7113 9.98218 25.4771C9.3689 25.2392 8.81372 24.8663 8.35474 24.3842C7.88745 23.9111 7.52588 23.3383 7.29517 22.7061C7.06812 22.1036 6.9126 21.4148 6.86816 20.4065C6.823 19.3959 6.8125 19.0731 6.8125 16.5C6.8125 13.9269 6.823 13.6041 6.86792 12.5938C6.91235 11.5852 7.06763 10.8966 7.29468 10.2939C7.52539 9.66167 7.88721 9.0889 8.35474 8.61582C8.81348 8.13368 9.3689 7.76081 9.98193 7.52289C10.5664 7.28874 11.2341 7.12862 12.2122 7.08254C13.1919 7.03647 13.5049 7.02539 16 7.02539C18.4951 7.02539 18.8081 7.03647 19.7878 7.08279C20.7659 7.12862 21.4336 7.28874 22.0181 7.52264C22.6311 7.76056 23.1865 8.13368 23.6455 8.61582C24.1128 9.08915 24.4746 9.66167 24.7051 10.2939C24.9324 10.8966 25.0876 11.5852 25.1323 12.5938C25.177 13.6041 25.1875 13.9269 25.1875 16.5C25.1875 19.0731 25.177 19.3959 25.1321 20.4062V20.4062Z"
        fill="#838D95" />
</svg>
