<svg width="33" height="33" viewBox="0 0 33 33" fill="none" xmlns="http://www.w3.org/2000/svg">
    <path
        d="M16.5 0C7.38869 0 0 7.38869 0 16.5C0 25.6113 7.38869 33 16.5 33C25.6113 33 33 25.6113 33 16.5C33 7.38869 25.6113 0 16.5 0ZM11.7053 24.9434H7.68679V12.8536H11.7053V24.9434ZM9.69617 11.2028H9.66998C8.3215 11.2028 7.44937 10.2745 7.44937 9.11433C7.44937 7.92799 8.34819 7.02539 9.72285 7.02539C11.0975 7.02539 11.9435 7.92799 11.9697 9.11433C11.9697 10.2745 11.0975 11.2028 9.69617 11.2028ZM26.1952 24.9434H22.1772V18.4756C22.1772 16.8502 21.5953 15.7417 20.1413 15.7417C19.0313 15.7417 18.3701 16.4894 18.0796 17.2113C17.9734 17.4696 17.9474 17.8306 17.9474 18.1919V24.9434H13.9292C13.9292 24.9434 13.9818 13.9878 13.9292 12.8536H17.9474V14.5654C18.4814 13.7416 19.4369 12.5699 21.5689 12.5699C24.2127 12.5699 26.1952 14.2978 26.1952 18.0111V24.9434Z"
        fill="#838D95" />
</svg>
